<mxfile host="app.diagrams.net" modified="2024-05-19T06:40:19.192Z" agent="Mozilla/5.0 (Windows NT 10.0; Win64; x64) AppleWebKit/537.36 (KHTML, like Gecko) Chrome/125.0.0.0 Safari/537.36" etag="_Ll65MsWi8JIjgqAceqy" version="24.4.4" type="github">
  <diagram name="Page-1" id="kf0Hy-vFXhsByxMsKS6U">
    <mxGraphModel dx="1050" dy="574" grid="1" gridSize="10" guides="1" tooltips="1" connect="1" arrows="1" fold="1" page="1" pageScale="1" pageWidth="850" pageHeight="1100" math="0" shadow="0">
      <root>
        <mxCell id="0" />
        <mxCell id="1" parent="0" />
        <mxCell id="8977t6DaoKkOjdEfnfAg-6" style="edgeStyle=orthogonalEdgeStyle;rounded=0;orthogonalLoop=1;jettySize=auto;html=1;" edge="1" parent="1" source="8977t6DaoKkOjdEfnfAg-1" target="8977t6DaoKkOjdEfnfAg-7">
          <mxGeometry relative="1" as="geometry">
            <mxPoint x="365" y="160" as="targetPoint" />
          </mxGeometry>
        </mxCell>
        <mxCell id="8977t6DaoKkOjdEfnfAg-1" value="&lt;font style=&quot;font-size: 23px;&quot;&gt;Start&lt;/font&gt;" style="rounded=1;whiteSpace=wrap;html=1;fillColor=#7fe679;strokeColor=#61ff05;fontSize=1;" vertex="1" parent="1">
          <mxGeometry x="305" y="40" width="120" height="60" as="geometry" />
        </mxCell>
        <mxCell id="8977t6DaoKkOjdEfnfAg-12" value="Yes" style="edgeStyle=orthogonalEdgeStyle;rounded=0;orthogonalLoop=1;jettySize=auto;html=1;entryX=0.5;entryY=0;entryDx=0;entryDy=0;" edge="1" parent="1" source="8977t6DaoKkOjdEfnfAg-7" target="8977t6DaoKkOjdEfnfAg-10">
          <mxGeometry relative="1" as="geometry" />
        </mxCell>
        <mxCell id="8977t6DaoKkOjdEfnfAg-7" value="Height &amp;gt; 120cm?" style="rhombus;whiteSpace=wrap;html=1;" vertex="1" parent="1">
          <mxGeometry x="307.5" y="160" width="115" height="80" as="geometry" />
        </mxCell>
        <mxCell id="8977t6DaoKkOjdEfnfAg-8" value="Can&#39;t Ride" style="rounded=1;whiteSpace=wrap;html=1;" vertex="1" parent="1">
          <mxGeometry x="185" y="250" width="120" height="60" as="geometry" />
        </mxCell>
        <mxCell id="8977t6DaoKkOjdEfnfAg-9" value="No" style="edgeStyle=orthogonalEdgeStyle;rounded=0;orthogonalLoop=1;jettySize=auto;html=1;entryX=0.462;entryY=-0.1;entryDx=0;entryDy=0;entryPerimeter=0;" edge="1" parent="1" source="8977t6DaoKkOjdEfnfAg-7" target="8977t6DaoKkOjdEfnfAg-8">
          <mxGeometry relative="1" as="geometry" />
        </mxCell>
        <mxCell id="8977t6DaoKkOjdEfnfAg-18" style="edgeStyle=orthogonalEdgeStyle;rounded=0;orthogonalLoop=1;jettySize=auto;html=1;exitX=0.5;exitY=1;exitDx=0;exitDy=0;" edge="1" parent="1" source="8977t6DaoKkOjdEfnfAg-10" target="8977t6DaoKkOjdEfnfAg-19">
          <mxGeometry relative="1" as="geometry">
            <mxPoint x="490" y="450" as="targetPoint" />
          </mxGeometry>
        </mxCell>
        <mxCell id="8977t6DaoKkOjdEfnfAg-10" value="Can Ride" style="rounded=1;whiteSpace=wrap;html=1;" vertex="1" parent="1">
          <mxGeometry x="430" y="250" width="120" height="60" as="geometry" />
        </mxCell>
        <mxCell id="8977t6DaoKkOjdEfnfAg-13" value="" style="endArrow=none;dashed=1;html=1;dashPattern=1 3;strokeWidth=2;rounded=0;" edge="1" parent="1">
          <mxGeometry width="50" height="50" relative="1" as="geometry">
            <mxPoint x="210" y="640" as="sourcePoint" />
            <mxPoint x="770" y="400" as="targetPoint" />
            <Array as="points">
              <mxPoint x="210" y="400" />
            </Array>
          </mxGeometry>
        </mxCell>
        <mxCell id="8977t6DaoKkOjdEfnfAg-14" value="" style="endArrow=none;dashed=1;html=1;rounded=0;" edge="1" parent="1">
          <mxGeometry width="50" height="50" relative="1" as="geometry">
            <mxPoint x="210" y="640" as="sourcePoint" />
            <mxPoint x="760" y="640" as="targetPoint" />
          </mxGeometry>
        </mxCell>
        <mxCell id="8977t6DaoKkOjdEfnfAg-15" value="" style="endArrow=none;dashed=1;html=1;rounded=0;" edge="1" parent="1">
          <mxGeometry width="50" height="50" relative="1" as="geometry">
            <mxPoint x="760" y="640" as="sourcePoint" />
            <mxPoint x="760" y="400" as="targetPoint" />
          </mxGeometry>
        </mxCell>
        <mxCell id="8977t6DaoKkOjdEfnfAg-20" style="edgeStyle=orthogonalEdgeStyle;rounded=0;orthogonalLoop=1;jettySize=auto;html=1;exitX=1;exitY=0.5;exitDx=0;exitDy=0;" edge="1" parent="1" source="8977t6DaoKkOjdEfnfAg-19" target="8977t6DaoKkOjdEfnfAg-21">
          <mxGeometry relative="1" as="geometry">
            <mxPoint x="650" y="560" as="targetPoint" />
          </mxGeometry>
        </mxCell>
        <mxCell id="8977t6DaoKkOjdEfnfAg-19" value="age" style="rhombus;whiteSpace=wrap;html=1;" vertex="1" parent="1">
          <mxGeometry x="450" y="440" width="80" height="80" as="geometry" />
        </mxCell>
        <mxCell id="8977t6DaoKkOjdEfnfAg-21" value="$12" style="rounded=1;whiteSpace=wrap;html=1;" vertex="1" parent="1">
          <mxGeometry x="590" y="530" width="120" height="60" as="geometry" />
        </mxCell>
        <mxCell id="8977t6DaoKkOjdEfnfAg-23" style="edgeStyle=orthogonalEdgeStyle;rounded=0;orthogonalLoop=1;jettySize=auto;html=1;exitX=0;exitY=0.5;exitDx=0;exitDy=0;" edge="1" parent="1" target="8977t6DaoKkOjdEfnfAg-24" source="8977t6DaoKkOjdEfnfAg-19">
          <mxGeometry relative="1" as="geometry">
            <mxPoint x="352.5" y="560" as="targetPoint" />
            <mxPoint x="422.5" y="480" as="sourcePoint" />
          </mxGeometry>
        </mxCell>
        <mxCell id="8977t6DaoKkOjdEfnfAg-24" value="$7" style="rounded=1;whiteSpace=wrap;html=1;" vertex="1" parent="1">
          <mxGeometry x="280" y="530" width="120" height="60" as="geometry" />
        </mxCell>
      </root>
    </mxGraphModel>
  </diagram>
</mxfile>
